<svg t="1724506376296" class="icon" viewBox="0 0 1024 1024" version="1.1" xmlns="http://www.w3.org/2000/svg" p-id="16035" width="200" height="200"><path d="M507.768595 0c279.272727 0 507.768595 228.495868 507.768595 507.768595s-228.495868 507.768595-507.768595 507.768595S0 787.041322 0 507.768595 228.495868 0 507.768595 0z" fill="#E9F3FE" p-id="16036"></path><path d="M677.024793 567.008264c4.231405 4.231405 12.694215 8.46281 16.92562 12.694215 105.785124 67.702479 173.487603 190.413223 173.487604 325.818182 0 16.92562-110.016529 118.479339-355.438017 118.479339s-355.438017-101.553719-355.438017-118.479339c0-139.636364 76.165289-270.809917 190.413224-334.280992 4.231405-4.231405 4.231405-4.231405 8.46281-4.231405 46.545455 33.85124 93.090909 63.471074 165.024793 63.471075s105.785124-29.619835 156.561983-63.471075z m-165.024793-359.669421c110.016529 0 198.876033 88.859504 198.876033 198.876033s-88.859504 198.876033-198.876033 198.876033-198.876033-88.859504-198.876033-198.876033 88.859504-198.876033 198.876033-198.876033z" fill="#2C8EFE" opacity=".5" p-id="16037"></path></svg>