<svg t="1724506278389" class="icon" viewBox="0 0 1024 1024" version="1.1" xmlns="http://www.w3.org/2000/svg" p-id="6602" width="200" height="200"><path d="M514 512m-492.5 0a492.5 492.5 0 1 0 985 0 492.5 492.5 0 1 0-985 0Z" fill="#DCDDDD" p-id="6603"></path><path d="M761.428 841.359H262.949c-33.36 0-60.501-27.139-60.501-60.501V429.565c0-33.347 27.142-60.479 60.501-60.479h498.48c33.35 0 60.479 27.131 60.479 60.479v351.292c-0.002 33.361-27.132 60.502-60.48 60.502zM262.949 377.158c-28.91 0-52.43 23.51-52.43 52.408v351.292c0 28.909 23.52 52.43 52.43 52.43h498.48c28.898 0 52.409-23.52 52.409-52.43V429.565c0-28.898-23.512-52.408-52.409-52.408h-498.48v0.001z" p-id="6604"></path><path d="M262.949 373.122h498.48c31.042 0 56.445 25.404 56.445 56.444v351.292c0 31.063-25.403 56.464-56.445 56.464h-498.48c-31.062 0-56.465-25.399-56.465-56.464V429.565c-0.001-31.039 25.401-56.443 56.465-56.443z" fill="#31BDEB" p-id="6605"></path><path d="M623.299 377.158H402.913a4.036 4.036 0 0 1-4.035-4.036v-31.81c0-0.406 0.061-0.811 0.183-1.198 6.831-21.98 17.908-33.055 35.915-35.911 0.209-0.033 0.42-0.05 0.631-0.05h165.55c0.453 0 0.9 0.076 1.328 0.225 15.561 5.431 23.918 15.701 24.84 30.524 0.006 0.084 0.009 0.168 0.009 0.251v37.967a4.036 4.036 0 0 1-4.035 4.038z m-216.35-8.071h212.312v-33.803c-0.735-11.17-6.889-18.718-18.804-23.06H435.932c-14.632 2.423-23.074 11.068-28.982 29.706l-0.001 27.157z" p-id="6606"></path><path d="M545.232 602.047h-66.088a4.035 4.035 0 0 1-4.036-4.035V373.1a4.036 4.036 0 0 1 4.036-4.036h66.088a4.035 4.035 0 0 1 4.035 4.036v224.911a4.035 4.035 0 0 1-4.035 4.036z m-62.05-8.07h58.017V377.135h-58.017v216.842z" p-id="6607"></path><path d="M745.828 602.682H285.771c-15.468 0-35.765-12.321-54.294-32.958-14.034-15.627-29.029-38.968-29.029-57.609v-82.548c0-33.347 27.142-60.479 60.501-60.479h498.48c33.35 0 60.479 27.131 60.479 60.479v82.548c0 15.849-9.682 37.854-25.268 57.43-16.769 21.058-35.289 33.137-50.812 33.137zM262.949 377.158c-28.91 0-52.43 23.51-52.43 52.408v82.548c0 13.481 10.584 33.978 26.962 52.218 16.771 18.676 35.275 30.277 48.29 30.277h460.058c12.857 0 29.492-11.25 44.498-30.095 14.282-17.938 23.512-38.506 23.512-52.4v-82.548c0-28.897-23.512-52.408-52.409-52.408H262.949z" p-id="6608"></path><path d="M262.949 373.122h498.48c31.042 0 56.445 25.426 56.445 56.444v82.548c0 31.063-41.025 86.531-72.044 86.531H285.77c-31.062 0-79.287-55.468-79.287-86.531v-82.548c0-31.04 25.402-56.444 56.466-56.444z" fill="#FFFFFF" p-id="6609"></path><path d="M354.536 651.577c-14.453 0-27.722-7.217-36.406-19.803a4.038 4.038 0 0 1-0.712-2.291v-81.89a4.035 4.035 0 0 1 4.036-4.036h65.839a4.035 4.035 0 0 1 4.036 4.036v81.89c0 0.795-0.235 1.571-0.674 2.235-8.394 12.62-21.557 19.859-36.119 19.859z m-29.047-23.382c7.149 9.748 17.671 15.312 29.047 15.312 11.433 0 21.837-5.55 28.721-15.275v-76.604h-57.768v76.567z" p-id="6610"></path><path d="M321.454 547.593h65.839v81.89c-15.85 23.841-49.063 24.316-65.839 0v-81.89z" fill="#31BDEB" p-id="6611"></path><path d="M319.098 450.843h71.951v8.071h-71.951zM319.098 482.358h71.951v8.071h-71.951zM319.098 513.896h71.951v8.071h-71.951zM676.461 651.577c-14.451 0-27.72-7.217-36.403-19.803a4.033 4.033 0 0 1-0.715-2.291v-81.89a4.036 4.036 0 0 1 4.036-4.036h65.819a4.035 4.035 0 0 1 4.035 4.036v81.89c0 0.793-0.233 1.57-0.673 2.233-8.38 12.622-21.538 19.861-36.099 19.861z m-29.047-23.382c7.151 9.748 17.673 15.312 29.047 15.312 11.43 0 21.827-5.55 28.701-15.271v-76.607h-57.748v76.566z" p-id="6612"></path><path d="M643.379 547.593h65.819v81.89c-15.827 23.841-49.041 24.316-65.819 0v-81.89z" fill="#31BDEB" p-id="6613"></path><path d="M641.048 482.358h71.931v8.071h-71.931zM641.048 513.896h71.931v8.071h-71.931z" p-id="6614"></path><path d="M205.351 754.408h185.698v8.07H205.351zM636.227 754.408h182.46v8.07h-182.46z" fill="#FFFFFF" p-id="6615"></path><path d="M535.587 800.471h-45.642a4.035 4.035 0 0 1-4.035-4.036v-52.521h-52.478a4.036 4.036 0 0 1-4.035-4.036v-45.644a4.036 4.036 0 0 1 4.035-4.035h52.501l0.021-52.521a4.035 4.035 0 0 1 4.036-4.035h45.62a4.036 4.036 0 0 1 4.034 4.037l-0.021 52.52h52.521a4.035 4.035 0 0 1 4.034 4.035v45.644a4.036 4.036 0 0 1-4.034 4.036h-52.521v52.521a4.037 4.037 0 0 1-4.036 4.035z m-41.606-8.073h37.571v-52.521a4.035 4.035 0 0 1 4.035-4.035h52.521V698.27h-52.521a4.04 4.04 0 0 1-2.855-1.183 4.043 4.043 0 0 1-1.18-2.854l0.021-52.52h-37.549l-0.021 52.521a4.035 4.035 0 0 1-4.035 4.035h-52.499v37.572h52.477a4.036 4.036 0 0 1 4.036 4.035l-0.001 52.522z" p-id="6616"></path><path d="M489.99 637.679h45.62l-0.023 56.556h56.558v45.644h-56.558v56.557h-45.642v-56.557h-56.513v-45.644h56.535l0.023-56.556z" fill="#FFFFFF" p-id="6617"></path><path d="M272.549 317.002c-18.13 0-32.881-14.75-32.881-32.881 0-18.117 14.75-32.856 32.881-32.856 18.118 0 32.856 14.739 32.856 32.856 0 18.131-14.738 32.881-32.856 32.881z m0-57.666c-13.679 0-24.81 11.118-24.81 24.785 0 13.679 11.129 24.81 24.81 24.81 13.667 0 24.786-11.129 24.786-24.81-0.001-13.667-11.12-24.785-24.786-24.785z" p-id="6618"></path><path d="M272.549 312.966c15.895 0 28.821-12.95 28.821-28.845 0-15.872-12.927-28.82-28.821-28.82-15.871 0-28.845 12.948-28.845 28.82 0 15.895 12.974 28.845 28.845 28.845z" fill="#31BDEB" p-id="6619"></path><path d="M778.25 272.491c-18.13 0-32.879-14.74-32.879-32.858 0-18.117 14.749-32.857 32.879-32.857 18.119 0 32.859 14.741 32.859 32.857 0 18.117-14.74 32.858-32.859 32.858z m0-57.645c-13.678 0-24.809 11.12-24.809 24.786 0 13.667 11.13 24.787 24.809 24.787 13.668 0 24.788-11.12 24.788-24.787 0-13.666-11.119-24.786-24.788-24.786z" p-id="6620"></path><path d="M778.25 268.455c15.873 0 28.823-12.95 28.823-28.822 0-15.871-12.95-28.822-28.823-28.822-15.892 0-28.845 12.951-28.845 28.822 0 15.871 12.953 28.822 28.845 28.822zM198.696 412.789c5.637 0 10.233 4.595 10.233 10.233 0 5.637-4.595 10.233-10.233 10.233-5.639 0-10.233-4.596-10.233-10.233 0-5.638 4.593-10.233 10.233-10.233z" fill="#31BDEB" p-id="6621"></path><path d="M198.696 437.292c-7.869 0-14.269-6.401-14.269-14.269 0-7.867 6.401-14.268 14.269-14.268 7.867 0 14.268 6.401 14.268 14.268 0 7.868-6.401 14.269-14.268 14.269z m0-20.468a6.205 6.205 0 0 0-6.198 6.198c0 3.416 2.782 6.198 6.198 6.198s6.197-2.782 6.197-6.198a6.206 6.206 0 0 0-6.197-6.198z" fill="#040000" p-id="6622"></path><path d="M180.673 326.211c5.637 0 10.233 4.595 10.233 10.233 0 5.637-4.596 10.211-10.233 10.211-5.637 0-10.233-4.574-10.233-10.211-0.002-5.637 4.596-10.233 10.233-10.233z" fill="#31BDEB" p-id="6623"></path><path d="M180.673 350.69c-7.869 0-14.269-6.391-14.269-14.246 0-7.868 6.401-14.269 14.269-14.269s14.269 6.401 14.269 14.269c0 7.855-6.402 14.246-14.269 14.246z m0-20.444a6.205 6.205 0 0 0-6.198 6.198c0 3.405 2.781 6.175 6.198 6.175s6.198-2.771 6.198-6.175a6.205 6.205 0 0 0-6.198-6.198z" fill="#040000" p-id="6624"></path><path d="M673.152 192.721c5.661 0 10.233 4.596 10.233 10.233 0 5.638-4.572 10.211-10.233 10.211-5.614 0-10.232-4.573-10.232-10.211 0-5.637 4.618-10.233 10.232-10.233z" fill="#31BDEB" p-id="6625"></path><path d="M673.152 217.201c-7.867 0-14.269-6.392-14.269-14.247 0-7.868 6.401-14.269 14.269-14.269s14.269 6.402 14.269 14.269c0 7.855-6.401 14.247-14.269 14.247z m0-20.445a6.204 6.204 0 0 0-6.197 6.198c0 3.405 2.779 6.175 6.197 6.175s6.197-2.771 6.197-6.175a6.204 6.204 0 0 0-6.197-6.198z" fill="#040000" p-id="6626"></path><path d="M500.178 226.388c5.661 0 10.234 4.596 10.234 10.233 0 5.637-4.574 10.233-10.234 10.233-5.614 0-10.233-4.596-10.233-10.233 0-5.637 4.619-10.233 10.233-10.233z" fill="#31BDEB" p-id="6627"></path><path d="M500.178 250.891c-7.868 0-14.268-6.401-14.268-14.268 0-7.867 6.4-14.269 14.268-14.269 7.869 0 14.27 6.401 14.27 14.269-0.001 7.866-6.402 14.268-14.27 14.268z m0-20.467a6.205 6.205 0 0 0-6.197 6.197 6.205 6.205 0 0 0 6.197 6.198 6.206 6.206 0 0 0 6.199-6.198 6.206 6.206 0 0 0-6.199-6.197z" fill="#040000" p-id="6628"></path><path d="M338.026 174.676c5.659 0 10.233 4.595 10.233 10.233a10.223 10.223 0 0 1-10.233 10.233c-5.614 0-10.233-4.573-10.233-10.233-0.001-5.637 4.619-10.233 10.233-10.233z" fill="#31BDEB" p-id="6629"></path><path d="M338.026 199.179c-7.868 0-14.269-6.401-14.269-14.269 0-7.866 6.401-14.268 14.269-14.268 7.866 0 14.269 6.402 14.269 14.268-0.001 7.868-6.402 14.269-14.269 14.269z m0-20.467a6.205 6.205 0 0 0-6.198 6.197 6.205 6.205 0 0 0 6.198 6.198 6.205 6.205 0 0 0 6.197-6.198 6.205 6.205 0 0 0-6.197-6.197z" fill="#040000" p-id="6630"></path><path d="M710.397 306.966c5.636 0 10.233 4.596 10.233 10.233 0 5.637-4.598 10.211-10.233 10.211-5.639 0-10.234-4.574-10.234-10.211 0-5.637 4.596-10.233 10.234-10.233z" fill="#31BDEB" p-id="6631"></path><path d="M710.397 331.446c-7.866 0-14.271-6.391-14.271-14.247 0-7.868 6.404-14.269 14.271-14.269 7.867 0 14.27 6.402 14.27 14.269 0 7.856-6.402 14.247-14.27 14.247z m0-20.445a6.206 6.206 0 0 0-6.198 6.198c0 3.405 2.78 6.175 6.198 6.175 3.419 0 6.197-2.77 6.197-6.175a6.204 6.204 0 0 0-6.197-6.198z" fill="#040000" p-id="6632"></path><path d="M855.75 320.211c5.637 0 10.21 4.574 10.21 10.234 0 5.614-4.574 10.21-10.21 10.21-5.639 0-10.234-4.596-10.234-10.21 0-5.66 4.595-10.234 10.234-10.234z" fill="#31BDEB" p-id="6633"></path><path d="M855.75 344.691c-7.867 0-14.271-6.39-14.271-14.245 0-7.869 6.403-14.27 14.271-14.27 7.855 0 14.246 6.401 14.246 14.27 0.002 7.854-6.391 14.245-14.246 14.245z m0-20.445a6.206 6.206 0 0 0-6.199 6.199c0 3.404 2.781 6.174 6.199 6.174a6.18 6.18 0 0 0 6.174-6.174c0.002-3.418-2.768-6.199-6.174-6.199z" fill="#040000" p-id="6634"></path><path d="M641.048 450.843h71.931v8.071h-71.931z" p-id="6635"></path><path d="M846.127 708.634c5.64 0 10.233 4.574 10.233 10.234 0 5.615-4.594 10.233-10.233 10.233-5.616 0-10.232-4.618-10.232-10.233 0-5.66 4.616-10.234 10.232-10.234z" fill="#31BDEB" p-id="6636"></path><path d="M846.127 733.137c-7.866 0-14.269-6.401-14.269-14.269s6.402-14.27 14.269-14.27 14.27 6.401 14.27 14.27c-0.001 7.867-6.402 14.269-14.27 14.269z m0-20.467a6.204 6.204 0 0 0-6.196 6.198c0 3.359 2.838 6.197 6.196 6.197 3.418 0 6.198-2.779 6.198-6.197s-2.78-6.198-6.198-6.198z" fill="#040000" p-id="6637"></path><path d="M166.272 581.168c5.615 0 10.211 4.572 10.211 10.21 0 5.637-4.596 10.233-10.211 10.233-5.66 0-10.233-4.596-10.233-10.233 0.001-5.639 4.573-10.21 10.233-10.21z" fill="#31BDEB" p-id="6638"></path><path d="M166.272 605.648c-7.868 0-14.268-6.402-14.268-14.27 0-7.855 6.401-14.246 14.268-14.246 7.856 0 14.247 6.392 14.247 14.246 0.001 7.868-6.391 14.27-14.247 14.27z m0-20.444c-3.417 0-6.197 2.768-6.197 6.174a6.205 6.205 0 0 0 6.197 6.197c3.405 0 6.176-2.78 6.176-6.197a6.181 6.181 0 0 0-6.176-6.174z" fill="#040000" p-id="6639"></path></svg>